<?xml version="1.0" standalone="no"?>
<!DOCTYPE svg PUBLIC "-//W3C//DTD SVG 20010904//EN"
 "http://www.w3.org/TR/2001/REC-SVG-20010904/DTD/svg10.dtd">
<svg version="1.0" xmlns="http://www.w3.org/2000/svg"
 width="64.000000pt" height="64.000000pt" viewBox="0 0 64.000000 64.000000"
 preserveAspectRatio="xMidYMid meet">

<g transform="translate(0.000000,64.000000) scale(0.100000,-0.100000)"
fill="#000000" stroke="none">
<path d="M85 544 c-11 -3 -35 -10 -53 -15 l-32 -11 0 -208 0 -208 160 -4 c88
-1 232 -1 320 0 l160 4 0 208 0 209 -37 10 c-101 26 -170 22 -248 -14 -29 -14
-35 -14 -80 6 -47 21 -149 33 -190 23z m155 -50 c22 -9 45 -25 50 -35 6 -10
10 -85 10 -167 l0 -150 -50 19 c-72 27 -108 25 -202 -16 -17 -7 -18 5 -18 168
l0 175 28 10 c42 16 137 14 182 -4z m339 5 l31 -11 0 -172 0 -173 -57 20 c-64
21 -123 18 -176 -8 -17 -8 -32 -15 -34 -15 -1 0 -3 69 -3 153 0 146 1 155 23
175 12 11 33 25 47 31 34 13 130 13 169 0z"/>
</g>
</svg>
